<?xml version="1.0" ?><svg id="图层_1" style="enable-background:new -239 241 32 32;" version="1.1" viewBox="-239 241 32 32" xml:space="preserve" xmlns="http://www.w3.org/2000/svg" xmlns:xlink="http://www.w3.org/1999/xlink"><style type="text/css">
	.st0{fill:#20BAF7;}
	.st1{fill:#2F9DC4;}
	.st2{fill:none;stroke:#0A2933;stroke-linejoin:round;}
	.st3{fill:none;stroke:#FFFFFF;stroke-linecap:round;stroke-linejoin:round;stroke-dasharray:1,2,6,2,3;}
</style><path class="st0" d="M-232.4,250l3.1,10.7l2.8-9.9c0.3-1,0.5-1.7,0.7-2.1c0.1-0.4,0.4-0.7,0.8-1.1s1-0.5,1.7-0.5  c0.7,0,1.3,0.2,1.7,0.5s0.7,0.7,0.8,1.1c0.2,0.4,0.4,1.1,0.7,2.1l2.8,9.9l3.1-10.7c0.2-0.8,0.4-1.3,0.5-1.7c0.1-0.3,0.3-0.6,0.6-0.9  c0.3-0.3,0.7-0.4,1.3-0.4s1.1,0.2,1.5,0.6c0.4,0.4,0.6,0.9,0.6,1.4c0,0.5-0.2,1.2-0.5,2.2l-3.9,11.4c-0.3,1-0.6,1.7-0.8,2.1  c-0.2,0.4-0.5,0.8-0.9,1.2s-1,0.5-1.7,0.5c-0.7,0-1.3-0.2-1.7-0.5c-0.4-0.4-0.7-0.8-0.9-1.3c-0.2-0.5-0.4-1.2-0.6-2l-2.7-9.3  l-2.6,9.3c-0.3,1.3-0.7,2.3-1.1,2.9c-0.4,0.7-1.1,1-2.1,1c-0.5,0-1-0.1-1.3-0.3c-0.4-0.2-0.7-0.5-0.9-0.9c-0.2-0.4-0.5-0.8-0.6-1.3  c-0.2-0.5-0.3-0.9-0.4-1.2l-3.9-11.4c-0.4-1.1-0.6-1.8-0.6-2.2c0-0.5,0.2-1,0.6-1.4c0.4-0.4,0.9-0.6,1.5-0.6c0.8,0,1.3,0.2,1.6,0.7  C-233,248.1-232.7,248.9-232.4,250z"/><path class="st1" d="M-209.5,249c0,0.5-0.2,1.2-0.5,2.2l-3.9,11.4c-0.3,1-0.6,1.7-0.8,2.1  c-0.2,0.4-0.5,0.8-0.9,1.2s-1,0.5-1.7,0.5c-0.7,0-1.3-0.2-1.7-0.5c-0.4-0.4-0.7-0.8-0.9-1.3c-0.2-0.5-0.4-1.2-0.6-2l-2.7-8.5  l-2.7,8.5c-0.3,1.3-0.7,2.3-1.1,2.9c-0.4,0.7-1.1,1-2.1,1c-0.5,0-1-0.1-1.3-0.3c-0.4-0.2-0.7-0.5-0.9-0.9c-0.2-0.4-0.5-0.8-0.6-1.3  c-0.2-0.5-0.3-0.9-0.4-1.2l-3.9-11.4c-0.4-1.1-0.6-1.8-0.6-2.2c0-0.3,0.1-0.6,0.2-0.9c0.1,0.3,0.2,0.6,0.3,1l3.9,11.4  c0.1,0.3,0.3,0.7,0.4,1.2c0.2,0.5,0.4,1,0.6,1.3c0.2,0.4,0.6,0.7,0.9,0.9s0.8,0.3,1.3,0.3c1,0,1.7-0.3,2.1-1  c0.4-0.7,0.8-1.6,1.1-2.9l2.7-6.4l2.7,6.4c0.2,0.8,0.4,1.5,0.6,2s0.5,1,0.9,1.3c0.4,0.4,1,0.5,1.7,0.5c0.7,0,1.2-0.2,1.7-0.5  s0.7-0.7,0.9-1.2c0.2-0.4,0.4-1.1,0.8-2.1l3.9-11.4c0.1-0.4,0.2-0.7,0.3-1C-209.6,248.4-209.5,248.7-209.5,249z" id="Combined-Shape"/><path class="st2" d="M-232.4,250l3.1,10.7l2.8-9.9c0.3-1,0.5-1.7,0.7-2.1c0.1-0.4,0.4-0.7,0.8-1.1s1-0.5,1.7-0.5  c0.7,0,1.3,0.2,1.7,0.5s0.7,0.7,0.8,1.1c0.2,0.4,0.4,1.1,0.7,2.1l2.8,9.9l3.1-10.7c0.2-0.8,0.4-1.3,0.5-1.7c0.1-0.3,0.3-0.6,0.6-0.9  c0.3-0.3,0.7-0.4,1.3-0.4s1.1,0.2,1.5,0.6c0.4,0.4,0.6,0.9,0.6,1.4c0,0.5-0.2,1.2-0.5,2.2l-3.9,11.4c-0.3,1-0.6,1.7-0.8,2.1  c-0.2,0.4-0.5,0.8-0.9,1.2s-1,0.5-1.7,0.5c-0.7,0-1.3-0.2-1.7-0.5c-0.4-0.4-0.7-0.8-0.9-1.3c-0.2-0.5-0.4-1.2-0.6-2l-2.7-9.3  l-2.6,9.3c-0.3,1.3-0.7,2.3-1.1,2.9c-0.4,0.7-1.1,1-2.1,1c-0.5,0-1-0.1-1.3-0.3c-0.4-0.2-0.7-0.5-0.9-0.9c-0.2-0.4-0.5-0.8-0.6-1.3  c-0.2-0.5-0.3-0.9-0.4-1.2l-3.9-11.4c-0.4-1.1-0.6-1.8-0.6-2.2c0-0.5,0.2-1,0.6-1.4c0.4-0.4,0.9-0.6,1.5-0.6c0.8,0,1.3,0.2,1.6,0.7  C-233,248.1-232.7,248.9-232.4,250z"/><path class="st3" d="M-224.4,250.2l-2.1,7.4" id="Path-25"/></svg>